<?xml version="1.0" encoding="UTF-8" standalone="no"?>
<svg xmlns="http://www.w3.org/2000/svg" viewBox="0 0 400 400">
<defs>
<style>.cls-1{fill:#1da1f2;}.cls-2{fill:#fff;}.cls-3{fill:none;}</style>
</defs>
<title>Twitter_Logo_White-on-Blue</title>
<g id="Dark_Blue" data-name="Dark Blue">
<rect width="400" class="cls-1" height="400"/>
</g>
<g id="Logo_FIXED" data-name="Logo — FIXED">
<path class="cls-2" d="m154 302c94.3 0 146-78.2 146-146 0-2.22 0-4.43-0.15-6.63a104 104 0 0 0 25 -27 102 102 0 0 1 -29.5 8.07 51.5 51.5 0 0 0 22.6 -28.4 103 103 0 0 1 -32.6 12.4 51.3 51.3 0 0 0 -87.4 46.8 146 146 0 0 1 -106 -53 51.3 51.3 0 0 0 15.9 68.5 50.9 50.9 0 0 1 -23 -6v0.65a51.3 51.3 0 0 0 41.2 50.3 51.2 51.2 0 0 1 -23.2 0.88 51.4 51.4 0 0 0 47.9 35.6 103 103 0 0 1 -63.7 22 104 104 0 0 1 -12.2 -1 145 145 0 0 0 78.6 23"/>
<rect width="400" class="cls-3" height="400"/>
</g>
</svg>
